<svg width="28" height="35" viewBox="0 0 28 35" fill="none" xmlns="http://www.w3.org/2000/svg">
<path d="M0.815918 14.2492C0.815918 6.88583 6.81548 0.91748 14.2163 0.91748C21.6182 0.91748 27.6178 6.88583 27.6178 14.2492C27.6178 15.5671 27.4227 16.839 27.0651 18.0441C25.1572 25.7206 14.1566 34.3068 14.1566 34.3068C14.1566 34.3068 1.72844 24.6124 0.997373 16.6126L1.02989 16.6063C0.891437 15.8425 0.815918 15.0547 0.815918 14.2492ZM14.0338 17.2188C17.0619 17.2188 19.5163 14.7761 19.5163 11.7638C19.5163 8.75146 17.0619 6.30986 14.0338 6.30986C11.0068 6.30986 8.55242 8.75146 8.55242 11.7638C8.55242 14.7761 11.0068 17.2188 14.0338 17.2188Z" fill="black"/>
</svg>
