<svg width="97" height="50" viewBox="0 0 97 50" fill="none" xmlns="http://www.w3.org/2000/svg">
<path d="M70.2293 14.8423V21.2596C70.2293 22.6648 69.8289 23.7411 69.0285 24.4882C68.228 25.2442 67.1227 25.6222 65.7127 25.6222C64.9031 25.6222 64.1617 25.5111 63.4886 25.2887C62.8154 25.0752 62.2423 24.7684 61.7693 24.3681L62.629 22.7672C63.4931 23.452 64.5029 23.7944 65.6582 23.7944C66.4586 23.7944 67.05 23.5987 67.432 23.2074C67.8231 22.8072 68.0188 22.1935 68.0188 21.3663V20.7926C67.382 21.5575 66.4814 21.94 65.317 21.94C64.1072 21.94 63.1748 21.6065 62.5198 20.9394C61.8739 20.2634 61.551 19.294 61.551 18.0309V14.8423H63.7615V17.8975C63.7615 18.6269 63.9389 19.1783 64.2937 19.5519C64.6484 19.9254 65.1487 20.1122 65.7946 20.1122C66.4769 20.1122 67.0181 19.9165 67.4184 19.5252C67.8186 19.1339 68.0188 18.5423 68.0188 17.7508V14.8423H70.2293ZM80.2196 23.3809C79.7647 23.6833 79.1916 23.9189 78.5003 24.088C77.818 24.257 77.0902 24.3414 76.3171 24.3414C75.3528 24.3414 74.5341 24.2258 73.861 23.9946C73.1878 23.7544 72.6784 23.4253 72.3327 23.0073C71.987 22.5804 71.8142 22.0957 71.8142 21.5531C71.8142 21.055 71.9552 20.6148 72.2372 20.2323C72.5192 19.8498 72.9058 19.5652 73.397 19.3784C73.024 19.1827 72.733 18.9159 72.5238 18.5779C72.3236 18.24 72.2236 17.8619 72.2236 17.4439C72.2236 16.937 72.3827 16.4744 72.7011 16.0564C73.0195 15.6384 73.5016 15.3049 74.1475 15.0558C74.7934 14.8067 75.5848 14.6823 76.5218 14.6823C77.1403 14.6823 77.7452 14.7445 78.3366 14.869C78.9278 14.9847 79.4418 15.1448 79.8784 15.3493L79.2644 17.0037C78.4275 16.6212 77.5405 16.43 76.6036 16.43C75.8941 16.43 75.3573 16.5367 74.9935 16.7502C74.6387 16.9547 74.4614 17.2349 74.4614 17.5907C74.4614 17.9198 74.5796 18.1733 74.8161 18.3511C75.0617 18.5202 75.4302 18.6046 75.9214 18.6046H78.5276V20.3123H75.7849C75.23 20.3123 74.8025 20.4057 74.5023 20.5925C74.2021 20.7793 74.052 21.0505 74.052 21.4063C74.052 21.7799 74.243 22.0734 74.6251 22.2869C75.0162 22.4914 75.6121 22.5937 76.4126 22.5937C76.9766 22.5937 77.5405 22.5226 78.1046 22.3803C78.6686 22.2291 79.1461 22.02 79.5373 21.7532L80.2196 23.3809ZM92.4182 14.6823C93.5465 14.6823 94.4241 15.0069 95.0517 15.6562C95.6794 16.2966 95.9932 17.226 95.9932 18.4445V24.1813H93.7827V18.5112C93.7827 17.8531 93.6054 17.3595 93.2506 17.0303C92.9052 16.6924 92.4455 16.5234 91.8724 16.5234C91.2448 16.5234 90.7442 16.7012 90.3715 17.057C89.9988 17.4039 89.812 17.9331 89.812 18.6447V24.1813H87.6015V18.5112C87.6015 17.8531 87.4378 17.3595 87.1103 17.0303C86.7828 16.6924 86.3368 16.5234 85.7731 16.5234C85.1544 16.5234 84.6586 16.7012 84.2856 17.057C83.9127 17.4039 83.7262 17.9331 83.7262 18.6447V24.1813H81.5157V14.8423H83.658V15.9897C83.9491 15.5717 84.3357 15.2515 84.8178 15.0291C85.2998 14.7979 85.855 14.6823 86.4826 14.6823C87.1376 14.6823 87.7107 14.8023 88.2019 15.0425C88.6931 15.2737 89.0709 15.6117 89.3345 16.0564C89.6619 15.6117 90.0892 15.2737 90.6171 15.0425C91.1535 14.8023 91.7539 14.6823 92.4182 14.6823ZM61.418 28.017H64.6723C65.4501 28.017 66.1357 28.1638 66.7293 28.4573C67.3297 28.7441 67.7936 29.151 68.1211 29.678C68.4554 30.205 68.6226 30.8187 68.6226 31.5191C68.6226 32.2196 68.4554 32.8333 68.1211 33.3602C67.7936 33.8872 67.3297 34.2975 66.7293 34.591C66.1357 34.8778 65.4501 35.0213 64.6723 35.0213H61.418V28.017ZM64.5904 33.6904C65.3068 33.6904 65.8765 33.497 66.2995 33.1101C66.7293 32.7165 66.9442 32.1862 66.9442 31.5191C66.9442 30.8521 66.7293 30.3251 66.2995 29.9382C65.8765 29.5446 65.3068 29.3478 64.5904 29.3478H63.0758V33.6904H64.5904ZM69.7602 29.638H71.3567V35.0213H69.7602V29.638ZM70.5584 28.8875C70.2651 28.8875 70.0263 28.8042 69.8421 28.6374C69.6579 28.4706 69.5658 28.2638 69.5658 28.017C69.5658 27.7702 69.6579 27.5634 69.8421 27.3966C70.0263 27.2299 70.2651 27.1465 70.5584 27.1465C70.8518 27.1465 71.0906 27.2265 71.2748 27.3866C71.459 27.5467 71.5511 27.7468 71.5511 27.987C71.5511 28.2471 71.459 28.4639 71.2748 28.6374C71.0906 28.8042 70.8518 28.8875 70.5584 28.8875ZM78.5181 29.638V34.1207C78.5181 35.108 78.2554 35.8418 77.7301 36.322C77.2048 36.8023 76.4372 37.0425 75.4275 37.0425C74.8954 37.0425 74.3905 36.9791 73.9129 36.8524C73.4353 36.7256 73.0396 36.5422 72.7258 36.302L73.3603 35.1814C73.5922 35.3681 73.8856 35.5149 74.2404 35.6216C74.5952 35.735 74.9499 35.7917 75.3047 35.7917C75.8573 35.7917 76.2633 35.6683 76.5225 35.4215C76.7886 35.1814 76.9216 34.8145 76.9216 34.3208V34.0907C76.5055 34.5376 75.9256 34.7611 75.1819 34.7611C74.677 34.7611 74.2131 34.6544 73.7901 34.4409C73.3739 34.2208 73.043 33.9139 72.7974 33.5203C72.5518 33.1268 72.429 32.6732 72.429 32.1595C72.429 31.6459 72.5518 31.1923 72.7974 30.7987C73.043 30.4051 73.3739 30.1016 73.7901 29.8881C74.2131 29.668 74.677 29.5579 75.1819 29.5579C75.9801 29.5579 76.5873 29.8148 77.0035 30.3284V29.638H78.5181ZM75.4991 33.4803C75.9221 33.4803 76.2667 33.3602 76.5328 33.1201C76.8057 32.8733 76.9421 32.5531 76.9421 32.1595C76.9421 31.7659 76.8057 31.4491 76.5328 31.2089C76.2667 30.9621 75.9221 30.8387 75.4991 30.8387C75.0762 30.8387 74.7282 30.9621 74.4553 31.2089C74.1824 31.4491 74.0459 31.7659 74.0459 32.1595C74.0459 32.5531 74.1824 32.8733 74.4553 33.1201C74.7282 33.3602 75.0762 33.4803 75.4991 33.4803ZM80.004 29.638H81.6004V35.0213H80.004V29.638ZM80.8022 28.8875C80.5088 28.8875 80.2701 28.8042 80.0858 28.6374C79.9016 28.4706 79.8095 28.2638 79.8095 28.017C79.8095 27.7702 79.9016 27.5634 80.0858 27.3966C80.2701 27.2299 80.5088 27.1465 80.8022 27.1465C81.0956 27.1465 81.3344 27.2265 81.5186 27.3866C81.7028 27.5467 81.7949 27.7468 81.7949 27.987C81.7949 28.2471 81.7028 28.4639 81.5186 28.6374C81.3344 28.8042 81.0956 28.8875 80.8022 28.8875ZM86.3982 34.7611C86.2413 34.8745 86.0469 34.9612 85.8149 35.0213C85.5897 35.0746 85.3544 35.1013 85.1084 35.1013C84.4466 35.1013 83.9384 34.9379 83.5836 34.611C83.2288 34.2841 83.0514 33.8038 83.0514 33.1701V28.4473H84.6479V29.7581H86.0093V30.9588H84.6479V33.1501C84.6479 33.3769 84.7059 33.5537 84.8219 33.6804C84.9379 33.8005 85.105 33.8606 85.3237 33.8606C85.5693 33.8606 85.7876 33.7938 85.9786 33.6604L86.3982 34.7611ZM92.7176 29.638V35.0213H91.1927V34.4009C90.797 34.8678 90.2239 35.1013 89.4735 35.1013C88.955 35.1013 88.4842 34.9879 88.0612 34.7611C87.645 34.5343 87.3176 34.2108 87.0788 33.7905C86.84 33.3703 86.7206 32.8833 86.7206 32.3296C86.7206 31.776 86.84 31.289 87.0788 30.8687C87.3176 30.4485 87.645 30.125 88.0612 29.8981C88.4842 29.6713 88.955 29.5579 89.4735 29.5579C90.1762 29.5579 90.7254 29.7747 91.1211 30.2083V29.638H92.7176ZM89.7498 33.8205C90.1523 33.8205 90.4866 33.6871 90.7527 33.4203C91.0188 33.1468 91.1518 32.7832 91.1518 32.3296C91.1518 31.876 91.0188 31.5158 90.7527 31.249C90.4866 30.9755 90.1523 30.8387 89.7498 30.8387C89.3404 30.8387 89.0027 30.9755 88.7366 31.249C88.4706 31.5158 88.3375 31.876 88.3375 32.3296C88.3375 32.7832 88.4706 33.1468 88.7366 33.4203C89.0027 33.6871 89.3404 33.8205 89.7498 33.8205ZM96.1706 35.1013C95.5498 35.1013 95.0654 34.9412 94.7174 34.621C94.3695 34.2941 94.1955 33.8339 94.1955 33.2402V27.5968H95.792V33.1501C95.792 33.3769 95.85 33.5537 95.966 33.6804C96.0888 33.8005 96.2593 33.8606 96.4776 33.8606C96.5595 33.8606 96.6414 33.8505 96.7233 33.8305C96.8119 33.8105 96.8802 33.7872 96.9279 33.7605L96.9996 34.9712C96.7335 35.0579 96.4572 35.1013 96.1706 35.1013Z" fill="black"/>
<path d="M15.0713 13.8267C15.1062 13.8684 15.1371 13.9025 15.172 13.9442C15.3814 14.1906 15.6062 14.4597 15.8504 14.7478C15.9706 14.8918 16.0985 15.0396 16.2264 15.1912C16.8738 15.953 17.6065 16.8172 18.3778 17.7192C18.6841 18.0793 18.9981 18.4469 19.3121 18.8146C19.6261 19.1823 19.9439 19.5537 20.2579 19.9213C20.2773 19.9441 20.2967 19.9668 20.3161 19.9895C20.4595 20.1563 20.5991 20.3231 20.7424 20.4861C20.7657 20.5126 20.789 20.5429 20.8161 20.5695C20.9285 20.6983 21.0371 20.8272 21.1456 20.956C21.2154 21.0394 21.2852 21.119 21.3549 21.2024C21.3744 21.2252 21.3937 21.2479 21.4131 21.2706C21.4557 21.3237 21.5023 21.3729 21.5449 21.4261C21.5992 21.4904 21.6534 21.5549 21.7077 21.6193C21.7309 21.6497 21.7581 21.6762 21.7813 21.7065C21.8473 21.7823 21.9132 21.8619 21.9791 21.9377C22.0256 21.9907 22.0682 22.0439 22.1147 22.0969C22.169 22.1613 22.2233 22.2258 22.2776 22.2902C22.3241 22.347 22.3745 22.4002 22.4209 22.4569C22.4442 22.4835 22.4675 22.5138 22.4946 22.5403C22.5683 22.6275 22.6419 22.7147 22.7156 22.7981C22.7389 22.8246 22.7621 22.8512 22.7853 22.8777C22.828 22.9307 22.8745 22.98 22.9171 23.0293C22.9637 23.0823 23.0063 23.1354 23.0528 23.1885C23.0761 23.215 23.0954 23.2377 23.1187 23.2643C23.3901 23.5789 23.6421 23.8783 23.8824 24.155C23.894 24.1663 23.9056 24.1815 23.9173 24.1929C23.9909 24.2763 24.0568 24.3558 24.1266 24.4355C24.1654 24.4809 24.2041 24.5264 24.239 24.5681C24.2545 24.5871 24.2739 24.6098 24.2894 24.6288C24.4057 24.7614 24.5103 24.8865 24.6151 25.0077C24.743 25.1556 24.8631 25.2958 24.9678 25.4171C24.9988 25.455 25.0259 25.4854 25.0531 25.5195L25.0569 25.5232C25.1694 25.6559 25.2701 25.7734 25.3516 25.8681C25.3516 25.8681 25.3516 25.8681 25.3554 25.8719C25.3942 25.9174 25.433 25.9591 25.464 25.997C25.4717 26.0046 25.4795 26.0083 25.4872 26.0159C25.5299 26.0463 25.5996 26.05 25.6423 26.0159C25.65 26.0083 25.6578 26.0046 25.6656 25.997C25.6927 25.9667 25.7237 25.9288 25.7586 25.8909C25.7818 25.8605 25.809 25.8302 25.8361 25.7999C25.8981 25.7279 25.9679 25.6483 26.0416 25.5612C26.0687 25.5308 26.092 25.5043 26.1153 25.4739C26.1229 25.4663 26.1268 25.4588 26.1346 25.4512C26.1733 25.4057 26.216 25.3564 26.2586 25.3072C26.2586 25.3034 26.2625 25.3034 26.2625 25.3034C26.2974 25.2617 26.3361 25.2162 26.3749 25.1708C26.4021 25.1366 26.4331 25.1025 26.4641 25.0646C26.5726 24.9358 26.6889 24.8031 26.8129 24.6553C26.8285 24.6363 26.844 24.6173 26.8633 24.5984C26.9137 24.5378 26.9719 24.4733 27.0261 24.4089C27.0765 24.3521 27.1269 24.2914 27.1773 24.2308C27.3518 24.0261 27.5378 23.8101 27.7317 23.5826C27.7705 23.5409 27.8054 23.4955 27.8441 23.4538C27.8558 23.4386 27.8712 23.4234 27.8829 23.4083C27.9371 23.3439 27.9953 23.2794 28.0495 23.2112C28.1077 23.143 28.1658 23.0747 28.2278 23.0028C28.2627 22.9611 28.2976 22.9231 28.3325 22.8814C28.348 22.8625 28.3635 22.8473 28.3791 22.8284C28.4604 22.7299 28.5457 22.6313 28.631 22.5327C28.6543 22.5062 28.6736 22.4835 28.6969 22.4569C28.724 22.4267 28.7512 22.3963 28.7744 22.366C28.9838 22.1234 29.197 21.8733 29.414 21.6155C29.4644 21.5549 29.5188 21.4943 29.5691 21.4337C29.5768 21.4261 29.5846 21.4146 29.5924 21.4071C29.6583 21.3275 29.728 21.2479 29.7978 21.1683C29.856 21.1039 29.9102 21.0357 29.9684 20.9712C30.0769 20.8461 30.1855 20.7173 30.294 20.5884C30.325 20.5505 30.356 20.5126 30.3909 20.4747C30.5304 20.3117 30.6701 20.1487 30.8096 19.9858C30.8289 19.9668 30.8445 19.9441 30.8638 19.9252C31.1778 19.5575 31.4918 19.186 31.8097 18.8184C32.1237 18.4508 32.4377 18.0831 32.7439 17.7231C33.5115 16.8209 34.248 15.9568 34.8953 15.195C35.0233 15.0434 35.1512 14.8955 35.2713 14.7515C35.5156 14.4635 35.7404 14.1943 35.9497 13.948C35.9846 13.9063 36.0117 13.8722 36.0466 13.8343C33.2788 11.3707 29.6001 9.86597 25.5648 9.86597C21.5177 9.86597 17.839 11.3669 15.0713 13.8267Z" fill="black"/>
<path d="M30.0304 32.3569C29.8094 32.1598 29.4606 32.2167 29.3094 32.4706L26.9448 36.4882L26.3594 37.4775C26.2509 37.6593 26.0532 37.7731 25.8361 37.7731H25.557H25.2856H25.2779C25.0608 37.7731 24.8592 37.6593 24.7507 37.4736L24.7468 37.4699L21.8007 32.463C21.6534 32.2091 21.3007 32.156 21.0797 32.3494L18.8818 34.2672L15.8271 36.9355C18.4902 39.0238 21.8705 40.2746 25.5531 40.2746C29.2357 40.2746 32.616 39.0238 35.2829 36.9316L34.1084 35.9045L30.0304 32.3569Z" fill="black"/>
<path d="M13.4015 23.6584C12.6882 22.4872 11.8509 21.1114 11.1454 19.9478C11.095 19.8644 11.0446 19.781 10.9942 19.7014C10.3468 21.3729 9.99023 23.1846 9.99023 25.0759C9.99023 27.1453 10.4127 29.1125 11.1803 30.909L11.7734 30.2003L14.9598 26.3911C14.9637 26.3873 14.9908 26.357 15.0257 26.3115C15.0218 26.3078 15.0179 26.3039 15.0141 26.2963C14.9171 26.1486 14.2426 25.0418 13.4015 23.6584Z" fill="black"/>
<path d="M25.5845 0C11.4548 0 0 11.1924 0 25C0 38.8076 11.4548 50 25.5845 50C39.7141 50 51.1689 38.8076 51.1689 25C51.1689 11.1924 39.7141 0 25.5845 0ZM45.5868 38.1822H45.5752H36.7486C36.737 38.1822 36.7215 38.1785 36.7099 38.1747C36.7059 38.1785 36.7059 38.1785 36.7021 38.1822L36.6982 38.1785C33.6746 40.6345 29.7904 42.1126 25.5534 42.1126C21.3165 42.1126 17.4323 40.6345 14.4126 38.1785H14.4087C14.4048 38.1747 14.4048 38.1747 14.401 38.1709C14.3893 38.1747 14.3777 38.1785 14.3622 38.1785H5.53555H5.52392C5.34948 38.1785 5.25645 37.9814 5.36498 37.8525L9.85002 32.4894C8.73752 30.2456 8.11338 27.7289 8.11338 25.0682C8.11338 15.6572 15.9205 8.02759 25.5534 8.02759C35.1864 8.02759 42.9935 15.6572 42.9935 25.0682C42.9935 27.7252 42.3694 30.2418 41.2607 32.4856L42.9625 34.5172L45.7458 37.845L45.7535 37.8525C45.8544 37.9851 45.7613 38.1822 45.5868 38.1822Z" fill="black"/>
<path d="M39.9692 19.9439C39.2598 21.1075 38.4263 22.4833 37.7131 23.6545C36.8681 25.0416 36.1974 26.1447 36.1044 26.2962C36.1005 26.3 36.0966 26.3038 36.0928 26.3076L36.1509 26.3796C36.1548 26.3834 36.1548 26.3872 36.1586 26.391L39.9304 30.9013C40.6941 29.1048 41.1166 27.1377 41.1166 25.072C41.1166 23.1807 40.76 21.3728 40.1164 19.7051C40.0661 19.7847 40.0196 19.8643 39.9692 19.9439Z" fill="black"/>
</svg>
